<mxfile host="app.diagrams.net" modified="2024-01-14T08:20:24.355Z" agent="Mozilla/5.0 (Windows NT 10.0; Win64; x64) AppleWebKit/537.36 (KHTML, like Gecko) Chrome/120.0.0.0 Safari/537.36" etag="PMstd5tlo2HFj8I5_MK_" version="22.1.18" type="google">
  <diagram name="Page-1" id="lfkfs2AMGd3cFi1uoCuD">
    <mxGraphModel grid="1" page="1" gridSize="10" guides="1" tooltips="1" connect="1" arrows="1" fold="1" pageScale="1" pageWidth="827" pageHeight="1169" math="0" shadow="0">
      <root>
        <mxCell id="0" />
        <mxCell id="1" parent="0" />
        <mxCell id="aeVR69p9GSTvsOIpxyla-2" value="" style="rounded=0;whiteSpace=wrap;html=1;sketch=1;hachureGap=4;jiggle=2;curveFitting=1;fontFamily=Architects Daughter;fontSource=https%3A%2F%2Ffonts.googleapis.com%2Fcss%3Ffamily%3DArchitects%2BDaughter;fontSize=20;labelBackgroundColor=none;fillColor=#B9EFF2;strokeColor=#0e8088;gradientColor=none;glass=0;shadow=0;" vertex="1" parent="1">
          <mxGeometry x="230" y="210" width="290" height="280" as="geometry" />
        </mxCell>
        <mxCell id="aeVR69p9GSTvsOIpxyla-3" value="" style="endArrow=none;html=1;rounded=0;sketch=1;hachureGap=4;jiggle=2;curveFitting=1;fontFamily=Architects Daughter;fontSource=https%3A%2F%2Ffonts.googleapis.com%2Fcss%3Ffamily%3DArchitects%2BDaughter;fontSize=16;entryX=1.007;entryY=0.529;entryDx=0;entryDy=0;entryPerimeter=0;" edge="1" parent="1">
          <mxGeometry width="50" height="50" relative="1" as="geometry">
            <mxPoint x="230" y="350.94" as="sourcePoint" />
            <mxPoint x="522.03" y="349.0599999999999" as="targetPoint" />
          </mxGeometry>
        </mxCell>
        <mxCell id="aeVR69p9GSTvsOIpxyla-4" value="" style="endArrow=none;html=1;rounded=0;sketch=1;hachureGap=4;jiggle=2;curveFitting=1;fontFamily=Architects Daughter;fontSource=https%3A%2F%2Ffonts.googleapis.com%2Fcss%3Ffamily%3DArchitects%2BDaughter;fontSize=16;entryX=0.5;entryY=1;entryDx=0;entryDy=0;exitX=0.5;exitY=0;exitDx=0;exitDy=0;" edge="1" parent="1" source="aeVR69p9GSTvsOIpxyla-2" target="aeVR69p9GSTvsOIpxyla-2">
          <mxGeometry width="50" height="50" relative="1" as="geometry">
            <mxPoint x="240" y="360.94" as="sourcePoint" />
            <mxPoint x="532.03" y="359.0599999999999" as="targetPoint" />
          </mxGeometry>
        </mxCell>
        <mxCell id="aeVR69p9GSTvsOIpxyla-5" value="High" style="text;html=1;strokeColor=none;fillColor=none;align=center;verticalAlign=middle;whiteSpace=wrap;rounded=0;fontSize=20;fontFamily=Architects Daughter;" vertex="1" parent="1">
          <mxGeometry x="150" y="265" width="60" height="30" as="geometry" />
        </mxCell>
        <mxCell id="aeVR69p9GSTvsOIpxyla-6" value="Low" style="text;html=1;strokeColor=none;fillColor=none;align=center;verticalAlign=middle;whiteSpace=wrap;rounded=0;fontSize=20;fontFamily=Architects Daughter;" vertex="1" parent="1">
          <mxGeometry x="150" y="405" width="60" height="30" as="geometry" />
        </mxCell>
        <mxCell id="aeVR69p9GSTvsOIpxyla-8" value="High" style="text;html=1;strokeColor=none;fillColor=none;align=center;verticalAlign=middle;whiteSpace=wrap;rounded=0;fontSize=20;fontFamily=Architects Daughter;" vertex="1" parent="1">
          <mxGeometry x="420" y="520" width="60" height="30" as="geometry" />
        </mxCell>
        <mxCell id="aeVR69p9GSTvsOIpxyla-9" value="Low" style="text;html=1;strokeColor=none;fillColor=none;align=center;verticalAlign=middle;whiteSpace=wrap;rounded=0;fontSize=20;fontFamily=Architects Daughter;" vertex="1" parent="1">
          <mxGeometry x="280" y="520" width="60" height="30" as="geometry" />
        </mxCell>
        <mxCell id="aeVR69p9GSTvsOIpxyla-10" value="Precision over Speed" style="text;html=1;strokeColor=none;fillColor=none;align=center;verticalAlign=middle;whiteSpace=wrap;rounded=0;fontSize=20;fontFamily=Architects Daughter;" vertex="1" parent="1">
          <mxGeometry x="270" y="265" width="60" height="30" as="geometry" />
        </mxCell>
        <mxCell id="aeVR69p9GSTvsOIpxyla-11" value="Where you want to be" style="text;html=1;strokeColor=none;fillColor=none;align=center;verticalAlign=middle;whiteSpace=wrap;rounded=0;fontSize=20;fontFamily=Architects Daughter;" vertex="1" parent="1">
          <mxGeometry x="414" y="265" width="60" height="30" as="geometry" />
        </mxCell>
        <mxCell id="aeVR69p9GSTvsOIpxyla-12" value="Not good!" style="text;html=1;strokeColor=none;fillColor=none;align=center;verticalAlign=middle;whiteSpace=wrap;rounded=0;fontSize=20;fontFamily=Architects Daughter;" vertex="1" parent="1">
          <mxGeometry x="270" y="405" width="60" height="30" as="geometry" />
        </mxCell>
        <mxCell id="aeVR69p9GSTvsOIpxyla-13" value="Fast but Buggy" style="text;html=1;strokeColor=none;fillColor=none;align=center;verticalAlign=middle;whiteSpace=wrap;rounded=0;fontSize=20;fontFamily=Architects Daughter;" vertex="1" parent="1">
          <mxGeometry x="414" y="405" width="60" height="30" as="geometry" />
        </mxCell>
        <mxCell id="aeVR69p9GSTvsOIpxyla-14" value="Quality" style="text;html=1;strokeColor=none;fillColor=none;align=center;verticalAlign=middle;whiteSpace=wrap;rounded=0;fontSize=20;fontFamily=Architects Daughter;fontStyle=1" vertex="1" parent="1">
          <mxGeometry x="120" y="220" width="60" height="30" as="geometry" />
        </mxCell>
        <mxCell id="aeVR69p9GSTvsOIpxyla-15" value="Quantity" style="text;html=1;strokeColor=none;fillColor=none;align=center;verticalAlign=middle;whiteSpace=wrap;rounded=0;fontSize=20;fontFamily=Architects Daughter;fontStyle=1" vertex="1" parent="1">
          <mxGeometry x="500" y="500" width="60" height="30" as="geometry" />
        </mxCell>
        <mxCell id="aeVR69p9GSTvsOIpxyla-18" value="" style="html=1;verticalLabelPosition=bottom;labelBackgroundColor=#ffffff;verticalAlign=top;shadow=0;dashed=0;strokeWidth=2;shape=mxgraph.ios7.misc.star;fillColor=#0080f0;strokeColor=none;sketch=0;hachureGap=4;jiggle=2;curveFitting=1;fontFamily=Architects Daughter;fontSource=https%3A%2F%2Ffonts.googleapis.com%2Fcss%3Ffamily%3DArchitects%2BDaughter;fontSize=20;" vertex="1" parent="1">
          <mxGeometry x="384" y="237" width="28" height="20" as="geometry" />
        </mxCell>
      </root>
    </mxGraphModel>
  </diagram>
</mxfile>
